<?xml version="1.0" encoding="UTF-8"?>
<!DOCTYPE svg PUBLIC "-//W3C//DTD SVG 1.1//EN" "http://www.w3.org/Graphics/SVG/1.1/DTD/svg11.dtd">
<svg xmlns="http://www.w3.org/2000/svg" version="1.1" viewBox="103 178 286 140" preserveAspectRatio="xMidYMid meet" style="shape-rendering:geometricPrecision; text-rendering:geometricPrecision; image-rendering:optimizeQuality; fill-rule:evenodd; clip-rule:evenodd" xmlns:xlink="http://www.w3.org/1999/xlink">
<g><path style="opacity:1" fill="#ababab" d="M 186.5,181.5 C 186.5,181.167 186.5,180.833 186.5,180.5C 203.833,180.5 221.167,180.5 238.5,180.5C 238.5,180.833 238.5,181.167 238.5,181.5C 230.167,181.5 221.833,181.5 213.5,181.5C 213.5,189.5 213.5,197.5 213.5,205.5C 221.833,205.5 230.167,205.5 238.5,205.5C 238.5,205.833 238.5,206.167 238.5,206.5C 238.5,206.833 238.5,207.167 238.5,207.5C 238.5,207.833 238.5,208.167 238.5,208.5C 230.167,208.5 221.833,208.5 213.5,208.5C 213.5,208.167 213.5,207.833 213.5,207.5C 212.833,206.167 212.167,206.167 211.5,207.5C 211.5,207.833 211.5,208.167 211.5,208.5C 203.167,208.5 194.833,208.5 186.5,208.5C 186.5,208.167 186.5,207.833 186.5,207.5C 186.5,207.167 186.5,206.833 186.5,206.5C 186.5,206.167 186.5,205.833 186.5,205.5C 194.833,205.5 203.167,205.5 211.5,205.5C 211.5,197.5 211.5,189.5 211.5,181.5C 203.167,181.5 194.833,181.5 186.5,181.5 Z"/></g>
<g><path style="opacity:1" fill="#818181" d="M 184.5,181.5 C 176.5,181.5 168.5,181.5 160.5,181.5C 160.5,189.5 160.5,197.5 160.5,205.5C 168.5,205.5 176.5,205.5 184.5,205.5C 184.5,205.833 184.5,206.167 184.5,206.5C 184.5,206.833 184.5,207.167 184.5,207.5C 176.167,207.5 167.833,207.5 159.5,207.5C 159.5,198.5 159.5,189.5 159.5,180.5C 168.017,180.174 176.35,180.507 184.5,181.5 Z"/></g>
<g><path style="opacity:1" fill="#000000" d="M 184.5,181.5 C 184.5,189.5 184.5,197.5 184.5,205.5C 176.5,205.5 168.5,205.5 160.5,205.5C 160.5,197.5 160.5,189.5 160.5,181.5C 168.5,181.5 176.5,181.5 184.5,181.5 Z"/></g>
<g><path style="opacity:1" fill="#f5f5f5" d="M 186.5,180.5 C 186.5,180.833 186.5,181.167 186.5,181.5C 186.5,189.5 186.5,197.5 186.5,205.5C 186.5,205.833 186.5,206.167 186.5,206.5C 185.833,206.5 185.167,206.5 184.5,206.5C 184.5,206.167 184.5,205.833 184.5,205.5C 184.5,197.5 184.5,189.5 184.5,181.5C 185.167,181.167 185.833,180.833 186.5,180.5 Z"/></g>
<g><path style="opacity:1" fill="#010101" d="M 186.5,181.5 C 194.833,181.5 203.167,181.5 211.5,181.5C 211.5,189.5 211.5,197.5 211.5,205.5C 203.167,205.5 194.833,205.5 186.5,205.5C 186.5,197.5 186.5,189.5 186.5,181.5 Z"/></g>
<g><path style="opacity:1" fill="#000000" d="M 238.5,181.5 C 238.5,189.5 238.5,197.5 238.5,205.5C 230.167,205.5 221.833,205.5 213.5,205.5C 213.5,197.5 213.5,189.5 213.5,181.5C 221.833,181.5 230.167,181.5 238.5,181.5 Z"/></g>
<g><path style="opacity:1" fill="#000000" d="M 240.5,181.5 C 249.167,181.5 257.833,181.5 266.5,181.5C 266.5,189.5 266.5,197.5 266.5,205.5C 257.833,205.5 249.167,205.5 240.5,205.5C 240.5,197.5 240.5,189.5 240.5,181.5 Z"/></g>
<g><path style="opacity:1" fill="#030303" d="M 296.5,181.5 C 296.5,189.5 296.5,197.5 296.5,205.5C 287.5,205.5 278.5,205.5 269.5,205.5C 269.5,197.5 269.5,189.5 269.5,181.5C 278.5,181.5 287.5,181.5 296.5,181.5 Z"/></g>
<g><path style="opacity:1" fill="#000000" d="M 328.5,181.5 C 337.5,181.5 346.5,181.5 355.5,181.5C 355.5,189.5 355.5,197.5 355.5,205.5C 346.5,205.5 337.5,205.5 328.5,205.5C 328.5,197.5 328.5,189.5 328.5,181.5 Z"/></g>
<g><path style="opacity:1" fill="#ababab" d="M 328.5,181.5 C 328.5,181.167 328.5,180.833 328.5,180.5C 337.833,180.5 347.167,180.5 356.5,180.5C 355.474,198.013 355.474,215.68 356.5,233.5C 347.167,233.5 337.833,233.5 328.5,233.5C 328.5,233.167 328.5,232.833 328.5,232.5C 337.5,232.5 346.5,232.5 355.5,232.5C 355.5,224.5 355.5,216.5 355.5,208.5C 346.5,208.5 337.5,208.5 328.5,208.5C 328.5,208.167 328.5,207.833 328.5,207.5C 328.5,207.167 328.5,206.833 328.5,206.5C 328.5,206.167 328.5,205.833 328.5,205.5C 337.5,205.5 346.5,205.5 355.5,205.5C 355.5,197.5 355.5,189.5 355.5,181.5C 346.5,181.5 337.5,181.5 328.5,181.5 Z"/></g>
<g><path style="opacity:1" fill="#777777" d="M 240.5,181.5 C 240.5,181.167 240.5,180.833 240.5,180.5C 249.682,180.173 258.682,180.507 267.5,181.5C 267.826,189.684 267.492,197.684 266.5,205.5C 266.5,197.5 266.5,189.5 266.5,181.5C 257.833,181.5 249.167,181.5 240.5,181.5 Z"/></g>
<g><path style="opacity:1" fill="#878787" d="M 326.5,181.5 C 326.5,189.5 326.5,197.5 326.5,205.5C 326.167,205.5 325.833,205.5 325.5,205.5C 316.682,206.493 307.682,206.827 298.5,206.5C 297.507,198.016 297.174,189.349 297.5,180.5C 307.348,180.173 317.014,180.506 326.5,181.5 Z"/></g>
<g><path style="opacity:1" fill="#000000" d="M 325.5,205.5 C 316.833,205.5 308.167,205.5 299.5,205.5C 299.5,197.5 299.5,189.5 299.5,181.5C 308.167,181.5 316.833,181.5 325.5,181.5C 325.5,189.5 325.5,197.5 325.5,205.5 Z"/></g>
<g><path style="opacity:1" fill="#e5e5e5" d="M 328.5,180.5 C 328.5,180.833 328.5,181.167 328.5,181.5C 328.5,189.5 328.5,197.5 328.5,205.5C 328.5,205.833 328.5,206.167 328.5,206.5C 327.833,206.167 327.167,205.833 326.5,205.5C 326.5,197.5 326.5,189.5 326.5,181.5C 327.167,181.167 327.833,180.833 328.5,180.5 Z"/></g>
<g><path style="opacity:1" fill="#ededed" d="M 238.5,180.5 C 239.167,180.5 239.833,180.5 240.5,180.5C 240.5,180.833 240.5,181.167 240.5,181.5C 240.5,189.5 240.5,197.5 240.5,205.5C 240.5,205.833 240.5,206.167 240.5,206.5C 239.833,206.5 239.167,206.5 238.5,206.5C 238.5,206.167 238.5,205.833 238.5,205.5C 238.5,197.5 238.5,189.5 238.5,181.5C 238.5,181.167 238.5,180.833 238.5,180.5 Z"/></g>
<g><path style="opacity:1" fill="#c3c3c3" d="M 296.5,181.5 C 287.5,181.5 278.5,181.5 269.5,181.5C 269.5,189.5 269.5,197.5 269.5,205.5C 278.5,205.5 287.5,205.5 296.5,205.5C 296.5,206.167 296.5,206.833 296.5,207.5C 287.5,207.5 278.5,207.5 269.5,207.5C 268.833,206.167 268.167,206.167 267.5,207.5C 258.5,207.5 249.5,207.5 240.5,207.5C 240.5,207.167 240.5,206.833 240.5,206.5C 240.5,206.167 240.5,205.833 240.5,205.5C 249.167,205.5 257.833,205.5 266.5,205.5C 267.492,197.684 267.826,189.684 267.5,181.5C 277.265,180.183 286.932,180.183 296.5,181.5 Z"/></g>
<g><path style="opacity:1" fill="#f8f8f8" d="M 325.5,205.5 C 325.833,205.5 326.167,205.5 326.5,205.5C 326.5,206.167 326.5,206.833 326.5,207.5C 317.167,207.5 307.833,207.5 298.5,207.5C 298.5,207.167 298.5,206.833 298.5,206.5C 307.682,206.827 316.682,206.493 325.5,205.5 Z"/></g>
<g><path style="opacity:1" fill="#000000" d="M 184.5,208.5 C 184.5,214.833 184.5,221.167 184.5,227.5C 184.5,228.5 184.5,229.5 184.5,230.5C 184.5,231.167 184.5,231.833 184.5,232.5C 176.5,232.5 168.5,232.5 160.5,232.5C 160.5,224.5 160.5,216.5 160.5,208.5C 168.5,208.5 176.5,208.5 184.5,208.5 Z"/></g>
<g><path style="opacity:1" fill="#010101" d="M 186.5,208.5 C 194.833,208.5 203.167,208.5 211.5,208.5C 211.5,216.5 211.5,224.5 211.5,232.5C 203.167,232.5 194.833,232.5 186.5,232.5C 186.5,224.5 186.5,216.5 186.5,208.5 Z"/></g>
<g><path style="opacity:1" fill="#000000" d="M 213.5,208.5 C 221.833,208.5 230.167,208.5 238.5,208.5C 238.5,216.5 238.5,224.5 238.5,232.5C 230.167,232.5 221.833,232.5 213.5,232.5C 213.5,224.5 213.5,216.5 213.5,208.5 Z"/></g>
<g><path style="opacity:1" fill="#000000" d="M 240.5,208.5 C 249.167,208.5 257.833,208.5 266.5,208.5C 266.5,216.5 266.5,224.5 266.5,232.5C 257.833,232.5 249.167,232.5 240.5,232.5C 240.5,224.5 240.5,216.5 240.5,208.5 Z"/></g>
<g><path style="opacity:1" fill="#000000" d="M 269.5,208.5 C 278.167,208.5 286.833,208.5 295.5,208.5C 295.5,216.5 295.5,224.5 295.5,232.5C 286.833,232.5 278.167,232.5 269.5,232.5C 269.5,224.5 269.5,216.5 269.5,208.5 Z"/></g>
<g><path style="opacity:1" fill="#000000" d="M 328.5,208.5 C 337.5,208.5 346.5,208.5 355.5,208.5C 355.5,216.5 355.5,224.5 355.5,232.5C 346.5,232.5 337.5,232.5 328.5,232.5C 328.5,224.5 328.5,216.5 328.5,208.5 Z"/></g>
<g><path style="opacity:1" fill="#bdbdbd" d="M 211.5,207.5 C 212.167,207.5 212.833,207.5 213.5,207.5C 213.5,207.833 213.5,208.167 213.5,208.5C 213.5,216.5 213.5,224.5 213.5,232.5C 221.833,232.5 230.167,232.5 238.5,232.5C 238.5,232.833 238.5,233.167 238.5,233.5C 221.167,233.5 203.833,233.5 186.5,233.5C 186.5,233.167 186.5,232.833 186.5,232.5C 194.833,232.5 203.167,232.5 211.5,232.5C 211.5,224.5 211.5,216.5 211.5,208.5C 211.5,208.167 211.5,207.833 211.5,207.5 Z"/></g>
<g><path style="opacity:1" fill="#ebebeb" d="M 238.5,207.5 C 239.167,207.5 239.833,207.5 240.5,207.5C 240.5,207.833 240.5,208.167 240.5,208.5C 240.5,216.5 240.5,224.5 240.5,232.5C 240.5,232.833 240.5,233.167 240.5,233.5C 239.833,233.5 239.167,233.5 238.5,233.5C 238.5,233.167 238.5,232.833 238.5,232.5C 238.5,224.5 238.5,216.5 238.5,208.5C 238.5,208.167 238.5,207.833 238.5,207.5 Z"/></g>
<g><path style="opacity:1" fill="#535353" d="M 269.5,208.5 C 269.5,208.167 269.5,207.833 269.5,207.5C 278.5,207.5 287.5,207.5 296.5,207.5C 296.5,216.167 296.5,224.833 296.5,233.5C 287.5,233.5 278.5,233.5 269.5,233.5C 269.5,233.167 269.5,232.833 269.5,232.5C 278.167,232.5 286.833,232.5 295.5,232.5C 295.5,224.5 295.5,216.5 295.5,208.5C 286.833,208.5 278.167,208.5 269.5,208.5 Z"/></g>
<g><path style="opacity:1" fill="#f2f2f2" d="M 184.5,207.5 C 185.167,207.5 185.833,207.5 186.5,207.5C 186.5,207.833 186.5,208.167 186.5,208.5C 186.5,216.5 186.5,224.5 186.5,232.5C 186.5,232.833 186.5,233.167 186.5,233.5C 185.833,233.167 185.167,232.833 184.5,232.5C 184.5,231.833 184.5,231.167 184.5,230.5C 185.833,229.5 185.833,228.5 184.5,227.5C 184.5,221.167 184.5,214.833 184.5,208.5C 184.5,208.167 184.5,207.833 184.5,207.5 Z"/></g>
<g><path style="opacity:1" fill="#e1e1e1" d="M 267.5,207.5 C 268.167,207.5 268.833,207.5 269.5,207.5C 269.5,207.833 269.5,208.167 269.5,208.5C 269.5,216.5 269.5,224.5 269.5,232.5C 269.5,232.833 269.5,233.167 269.5,233.5C 268.833,233.167 268.167,232.833 267.5,232.5C 267.5,224.167 267.5,215.833 267.5,207.5 Z"/></g>
<g><path style="opacity:1" fill="#e7e7e7" d="M 326.5,207.5 C 327.167,207.5 327.833,207.5 328.5,207.5C 328.5,207.833 328.5,208.167 328.5,208.5C 328.5,216.5 328.5,224.5 328.5,232.5C 328.5,232.833 328.5,233.167 328.5,233.5C 327.833,231.833 327.167,230.167 326.5,228.5C 326.5,221.5 326.5,214.5 326.5,207.5 Z"/></g>
<g><path style="opacity:1" fill="#616161" d="M 159.5,207.5 C 167.833,207.5 176.167,207.5 184.5,207.5C 184.5,207.833 184.5,208.167 184.5,208.5C 176.5,208.5 168.5,208.5 160.5,208.5C 160.5,216.5 160.5,224.5 160.5,232.5C 168.5,232.5 176.5,232.5 184.5,232.5C 176.35,233.493 168.017,233.826 159.5,233.5C 159.5,224.833 159.5,216.167 159.5,207.5 Z"/></g>
<g><path style="opacity:1" fill="#717171" d="M 240.5,208.5 C 240.5,208.167 240.5,207.833 240.5,207.5C 249.5,207.5 258.5,207.5 267.5,207.5C 267.5,215.833 267.5,224.167 267.5,232.5C 258.682,233.493 249.682,233.827 240.5,233.5C 240.5,233.167 240.5,232.833 240.5,232.5C 249.167,232.5 257.833,232.5 266.5,232.5C 266.5,224.5 266.5,216.5 266.5,208.5C 257.833,208.5 249.167,208.5 240.5,208.5 Z"/></g>
<g><path style="opacity:1" fill="#888888" d="M 298.5,207.5 C 307.833,207.5 317.167,207.5 326.5,207.5C 326.5,214.5 326.5,221.5 326.5,228.5C 326.5,230.167 326.5,231.833 326.5,233.5C 316.833,233.5 307.167,233.5 297.5,233.5C 297.174,224.651 297.507,215.984 298.5,207.5 Z"/></g>
<g><path style="opacity:1" fill="#000000" d="M 299.5,208.5 C 308.167,208.5 316.833,208.5 325.5,208.5C 325.5,216.5 325.5,224.5 325.5,232.5C 316.833,232.5 308.167,232.5 299.5,232.5C 299.5,224.5 299.5,216.5 299.5,208.5 Z"/></g>
<g><path style="opacity:1" fill="#000000" d="M 133.5,235.5 C 133.5,242.5 133.5,249.5 133.5,256.5C 124.833,256.5 116.167,256.5 107.5,256.5C 107.5,249.5 107.5,242.5 107.5,235.5C 116.167,235.5 124.833,235.5 133.5,235.5 Z"/></g>
<g><path style="opacity:1" fill="#c9c9c9" d="M 355.5,257.5 C 355.5,250.167 355.5,242.833 355.5,235.5C 346.5,235.5 337.5,235.5 328.5,235.5C 328.5,242.833 328.5,250.167 328.5,257.5C 327.508,250.018 327.175,242.352 327.5,234.5C 337.167,234.5 346.833,234.5 356.5,234.5C 356.825,242.352 356.492,250.018 355.5,257.5 Z"/></g>
<g><path style="opacity:1" fill="#040404" d="M 355.5,257.5 C 346.5,257.5 337.5,257.5 328.5,257.5C 328.5,250.167 328.5,242.833 328.5,235.5C 337.5,235.5 346.5,235.5 355.5,235.5C 355.5,242.833 355.5,250.167 355.5,257.5 Z"/></g>
<g><path style="opacity:1" fill="#737373" d="M 159.5,239.5 C 167.833,239.5 176.167,239.5 184.5,239.5C 184.5,245.5 184.5,251.5 184.5,257.5C 176.167,257.5 167.833,257.5 159.5,257.5C 159.5,251.5 159.5,245.5 159.5,239.5 Z"/></g>
<g><path style="opacity:1" fill="#000000" d="M 160.5,241.5 C 168.167,241.5 175.833,241.5 183.5,241.5C 183.5,246.5 183.5,251.5 183.5,256.5C 175.833,256.5 168.167,256.5 160.5,256.5C 160.5,251.5 160.5,246.5 160.5,241.5 Z"/></g>
<g><path style="opacity:1" fill="#b0b0b0" d="M 134.5,235.5 C 134.167,235.5 133.833,235.5 133.5,235.5C 124.833,235.5 116.167,235.5 107.5,235.5C 107.5,242.5 107.5,249.5 107.5,256.5C 107.5,256.833 107.5,257.167 107.5,257.5C 106.883,257.389 106.383,257.056 106,256.5C 105.188,249.253 105.354,242.086 106.5,235C 116.009,234.176 125.343,234.342 134.5,235.5 Z"/></g>
<g><path style="opacity:1" fill="#c7c7c7" d="M 385.5,257.5 C 385.825,249.981 385.492,242.648 384.5,235.5C 375.833,235.5 367.167,235.5 358.5,235.5C 358.5,242.5 358.5,249.5 358.5,256.5C 358.5,256.833 358.5,257.167 358.5,257.5C 357.508,250.018 357.175,242.352 357.5,234.5C 367.167,234.5 376.833,234.5 386.5,234.5C 386.825,242.352 386.492,250.018 385.5,257.5 Z"/></g>
<g><path style="opacity:1" fill="#000000" d="M 384.5,235.5 C 384.5,242.5 384.5,249.5 384.5,256.5C 375.833,256.5 367.167,256.5 358.5,256.5C 358.5,249.5 358.5,242.5 358.5,235.5C 367.167,235.5 375.833,235.5 384.5,235.5 Z"/></g>
<g><path style="opacity:1" fill="#383838" d="M 133.5,235.5 C 133.833,235.5 134.167,235.5 134.5,235.5C 134.5,242.833 134.5,250.167 134.5,257.5C 125.5,257.5 116.5,257.5 107.5,257.5C 107.5,257.167 107.5,256.833 107.5,256.5C 116.167,256.5 124.833,256.5 133.5,256.5C 133.5,249.5 133.5,242.5 133.5,235.5 Z"/></g>
<g><path style="opacity:1" fill="#424242" d="M 384.5,235.5 C 385.492,242.648 385.825,249.981 385.5,257.5C 376.5,257.5 367.5,257.5 358.5,257.5C 358.5,257.167 358.5,256.833 358.5,256.5C 367.167,256.5 375.833,256.5 384.5,256.5C 384.5,249.5 384.5,242.5 384.5,235.5 Z"/></g>
<g><path style="opacity:1" fill="#f0f0f0" d="M 326.5,259.5 C 326.167,259.5 325.833,259.5 325.5,259.5C 316.5,259.5 307.5,259.5 298.5,259.5C 298.5,267.5 298.5,275.5 298.5,283.5C 307.5,283.5 316.5,283.5 325.5,283.5C 325.833,283.5 326.167,283.5 326.5,283.5C 326.5,284.167 326.5,284.833 326.5,285.5C 326.167,285.5 325.833,285.5 325.5,285.5C 316.833,285.5 308.167,285.5 299.5,285.5C 299.167,285.5 298.833,285.5 298.5,285.5C 297.529,276.584 297.196,267.584 297.5,258.5C 307.348,258.173 317.014,258.506 326.5,259.5 Z"/></g>
<g><path style="opacity:1" fill="#010101" d="M 184.5,259.5 C 184.5,267.5 184.5,275.5 184.5,283.5C 176.5,283.5 168.5,283.5 160.5,283.5C 160.5,275.5 160.5,267.5 160.5,259.5C 168.5,259.5 176.5,259.5 184.5,259.5 Z"/></g>
<g><path style="opacity:1" fill="#000000" d="M 266.5,259.5 C 266.5,267.5 266.5,275.5 266.5,283.5C 257.833,283.5 249.167,283.5 240.5,283.5C 240.5,275.5 240.5,267.5 240.5,259.5C 249.167,259.5 257.833,259.5 266.5,259.5 Z"/></g>
<g><path style="opacity:1" fill="#020202" d="M 296.5,259.5 C 296.5,267.5 296.5,275.5 296.5,283.5C 287.5,283.5 278.5,283.5 269.5,283.5C 269.5,275.5 269.5,267.5 269.5,259.5C 278.5,259.5 287.5,259.5 296.5,259.5 Z"/></g>
<g><path style="opacity:1" fill="#050505" d="M 325.5,259.5 C 325.5,267.5 325.5,275.5 325.5,283.5C 316.5,283.5 307.5,283.5 298.5,283.5C 298.5,275.5 298.5,267.5 298.5,259.5C 307.5,259.5 316.5,259.5 325.5,259.5 Z"/></g>
<g><path style="opacity:1" fill="#f4f4f4" d="M 267.5,259.5 C 267.167,259.5 266.833,259.5 266.5,259.5C 257.833,259.5 249.167,259.5 240.5,259.5C 240.5,267.5 240.5,275.5 240.5,283.5C 249.167,283.5 257.833,283.5 266.5,283.5C 266.833,283.5 267.167,283.5 267.5,283.5C 242.5,284.167 217.5,284.833 192.5,285.5C 184.5,285.5 176.5,285.5 168.5,285.5C 168.5,292.833 168.5,300.167 168.5,307.5C 167.508,300.018 167.175,292.352 167.5,284.5C 164.615,284.806 161.948,284.473 159.5,283.5C 159.833,283.5 160.167,283.5 160.5,283.5C 168.5,283.5 176.5,283.5 184.5,283.5C 184.5,275.5 184.5,267.5 184.5,259.5C 212.264,258.172 239.931,258.172 267.5,259.5 Z"/></g>
<g><path style="opacity:1" fill="#000000" d="M 213.5,259.5 C 221.833,259.5 230.167,259.5 238.5,259.5C 238.5,267.5 238.5,275.5 238.5,283.5C 230.167,283.5 221.833,283.5 213.5,283.5C 213.5,275.5 213.5,267.5 213.5,259.5 Z"/></g>
<g><path style="opacity:1" fill="#010101" d="M 186.5,259.5 C 194.833,259.5 203.167,259.5 211.5,259.5C 211.5,267.5 211.5,275.5 211.5,283.5C 203.167,283.5 194.833,283.5 186.5,283.5C 186.5,275.5 186.5,267.5 186.5,259.5 Z"/></g>
<g><path style="opacity:1" fill="#818181" d="M 184.5,259.5 C 176.5,259.5 168.5,259.5 160.5,259.5C 160.5,267.5 160.5,275.5 160.5,283.5C 160.167,283.5 159.833,283.5 159.5,283.5C 159.5,275.167 159.5,266.833 159.5,258.5C 168.017,258.174 176.35,258.507 184.5,259.5 Z"/></g>
<g><path style="opacity:1" fill="#d7d7d7" d="M 296.5,259.5 C 287.5,259.5 278.5,259.5 269.5,259.5C 269.5,267.5 269.5,275.5 269.5,283.5C 278.5,283.5 287.5,283.5 296.5,283.5C 286.932,284.817 277.265,284.817 267.5,283.5C 267.167,283.5 266.833,283.5 266.5,283.5C 266.5,275.5 266.5,267.5 266.5,259.5C 266.833,259.5 267.167,259.5 267.5,259.5C 277.265,258.183 286.932,258.183 296.5,259.5 Z"/></g>
<g><path style="opacity:1" fill="#e2e2e2" d="M 105.5,258.5 C 123.167,258.5 140.833,258.5 158.5,258.5C 158.5,277.833 158.5,297.167 158.5,316.5C 149.833,316.5 141.167,316.5 132.5,316.5C 132.5,305.833 132.5,295.167 132.5,284.5C 123.827,284.666 115.16,284.5 106.5,284C 105.517,275.585 105.183,267.085 105.5,258.5 Z"/></g>
<g><path style="opacity:1" fill="#000000" d="M 133.5,259.5 C 141.5,259.5 149.5,259.5 157.5,259.5C 157.5,267.5 157.5,275.5 157.5,283.5C 149.5,283.5 141.5,283.5 133.5,283.5C 133.5,275.5 133.5,267.5 133.5,259.5 Z"/></g>
<g><path style="opacity:1" fill="#000000" d="M 107.5,259.5 C 115.5,259.5 123.5,259.5 131.5,259.5C 131.5,267.5 131.5,275.5 131.5,283.5C 123.5,283.5 115.5,283.5 107.5,283.5C 107.5,275.5 107.5,267.5 107.5,259.5 Z"/></g>
<g><path style="opacity:1" fill="#e7e7e7" d="M 365.5,307.5 C 356.682,308.493 347.682,308.827 338.5,308.5C 338.5,300.5 338.5,292.5 338.5,284.5C 334.4,284.763 330.4,284.43 326.5,283.5C 326.167,283.5 325.833,283.5 325.5,283.5C 325.5,275.5 325.5,267.5 325.5,259.5C 325.833,259.5 326.167,259.5 326.5,259.5C 326.435,259.938 326.601,260.272 327,260.5C 336.572,258.541 346.405,257.874 356.5,258.5C 356.833,293.167 357.167,293.167 357.5,258.5C 367.167,258.5 376.833,258.5 386.5,258.5C 386.5,267.167 386.5,275.833 386.5,284.5C 379.833,284.5 373.167,284.5 366.5,284.5C 366.825,292.352 366.492,300.018 365.5,307.5 Z"/></g>
<g><path style="opacity:1" fill="#040404" d="M 358.5,259.5 C 367.5,259.5 376.5,259.5 385.5,259.5C 385.5,267.5 385.5,275.5 385.5,283.5C 376.5,283.5 367.5,283.5 358.5,283.5C 358.5,275.5 358.5,267.5 358.5,259.5 Z"/></g>
<g><path style="opacity:1" fill="#000000" d="M 328.5,259.5 C 337.5,259.5 346.5,259.5 355.5,259.5C 355.5,267.5 355.5,275.5 355.5,283.5C 346.5,283.5 337.5,283.5 328.5,283.5C 328.5,275.5 328.5,267.5 328.5,259.5 Z"/></g>
<g><path style="opacity:1" fill="#000000" d="M 133.5,285.5 C 141.5,285.5 149.5,285.5 157.5,285.5C 157.5,295.5 157.5,305.5 157.5,315.5C 149.5,315.5 141.5,315.5 133.5,315.5C 133.5,305.5 133.5,295.5 133.5,285.5 Z"/></g>
<g><path style="opacity:1" fill="#181818" d="M 192.5,285.5 C 193.827,292.902 193.827,300.402 192.5,308C 184.323,308.823 176.323,308.656 168.5,307.5C 168.5,300.167 168.5,292.833 168.5,285.5C 176.5,285.5 184.5,285.5 192.5,285.5 Z"/></g>
<g><path style="opacity:1" fill="#050505" d="M 365.5,307.5 C 356.833,307.5 348.167,307.5 339.5,307.5C 339.5,300.167 339.5,292.833 339.5,285.5C 348.167,285.5 356.833,285.5 365.5,285.5C 365.5,292.833 365.5,300.167 365.5,307.5 Z"/></g>
<g><path style="opacity:1" fill="#a6a6a6" d="M 298.5,285.5 C 298.833,285.5 299.167,285.5 299.5,285.5C 299.5,295.5 299.5,305.5 299.5,315.5C 308.167,315.5 316.833,315.5 325.5,315.5C 325.5,305.5 325.5,295.5 325.5,285.5C 325.833,285.5 326.167,285.5 326.5,285.5C 327.415,295.173 327.749,305.006 327.5,315C 317.665,316.473 307.665,316.973 297.5,316.5C 297.172,305.986 297.506,295.653 298.5,285.5 Z"/></g>
<g><path style="opacity:1" fill="#000000" d="M 299.5,285.5 C 308.167,285.5 316.833,285.5 325.5,285.5C 325.5,295.5 325.5,305.5 325.5,315.5C 316.833,315.5 308.167,315.5 299.5,315.5C 299.5,305.5 299.5,295.5 299.5,285.5 Z"/></g>
</svg>
